<svg width="12" height="19" viewBox="0 0 12 19" fill="none" xmlns="http://www.w3.org/2000/svg">
<path fill-rule="evenodd" clip-rule="evenodd" d="M6 19C5.8375 19 5.68125 18.9691 5.53125 18.9073C5.38125 18.8455 5.2375 18.7528 5.1 18.6293L0.6 14.4585C0.4125 14.2886 0.26575 14.0724 0.15975 13.8098C0.0532499 13.5472 0 13.2691 0 12.9756V1.85366C0 1.3439 0.147 0.907366 0.441 0.544049C0.7345 0.181349 1.0875 0 1.5 0H10.5C10.9125 0 11.2658 0.181349 11.5598 0.544049C11.8533 0.907366 12 1.3439 12 1.85366V12.9756C12 13.2691 11.947 13.5472 11.841 13.8098C11.7345 14.0724 11.5875 14.2886 11.4 14.4585L6.9 18.6293C6.7625 18.7528 6.61875 18.8455 6.46875 18.9073C6.31875 18.9691 6.1625 19 6 19ZM3.58333 9.09091H5.66667V12L8.58333 6.90909H6.5V4L3.58333 9.09091Z" fill="#50c1ff"/>
</svg>
