<svg width="19" height="19" viewBox="0 0 19 19" fill="none" xmlns="http://www.w3.org/2000/svg">
<path fill-rule="evenodd" clip-rule="evenodd" d="M2 0H17C18.1046 0 19 0.895431 19 2V17C19 18.1046 18.1046 19 17 19H2C0.895431 19 0 18.1046 0 17V2C0 0.895431 0.895431 0 2 0ZM5.60417 8.17083C6.67361 8.64954 7.97222 8.88889 9.5 8.88889C11.0278 8.88889 12.3264 8.64954 13.3958 8.17083C14.4653 7.69213 15 7.11667 15 6.44444C15 5.77222 14.4653 5.19676 13.3958 4.71806C12.3264 4.23935 11.0278 4 9.5 4C7.97222 4 6.67361 4.23935 5.60417 4.71806C4.53472 5.19676 4 5.77222 4 6.44444C4 7.11667 4.53472 7.69213 5.60417 8.17083ZM5.60417 11.2264C6.67361 11.7051 7.97222 11.9444 9.5 11.9444C11.0278 11.9444 12.3264 11.7051 13.3958 11.2264C14.4653 10.7477 15 10.1722 15 9.5V7.97222C15 8.42037 14.7912 8.79987 14.3736 9.11072C13.956 9.42117 13.4569 9.67315 12.8764 9.86667C12.2958 10.0602 11.6923 10.2001 11.0657 10.2865C10.4395 10.3733 9.91759 10.4167 9.5 10.4167C9.08241 10.4167 8.56052 10.3733 7.93433 10.2865C7.30774 10.2001 6.70417 10.0602 6.12361 9.86667C5.54306 9.67315 5.04398 9.42117 4.62639 9.11072C4.2088 8.79987 4 8.42037 4 7.97222V9.5C4 10.1722 4.53472 10.7477 5.60417 11.2264ZM5.60417 14.2819C6.67361 14.7606 7.97222 15 9.5 15C11.0278 15 12.3264 14.7606 13.3958 14.2819C14.4653 13.8032 15 13.2278 15 12.5556V11.0278C15 11.4759 14.7912 11.8554 14.3736 12.1663C13.956 12.4767 13.4569 12.7287 12.8764 12.9222C12.2958 13.1157 11.6923 13.2559 11.0657 13.3427C10.4395 13.429 9.91759 13.4722 9.5 13.4722C9.08241 13.4722 8.56052 13.429 7.93433 13.3427C7.30774 13.2559 6.70417 13.1157 6.12361 12.9222C5.54306 12.7287 5.04398 12.4767 4.62639 12.1663C4.2088 11.8554 4 11.4759 4 11.0278V12.5556C4 13.2278 4.53472 13.8032 5.60417 14.2819Z" fill="#fff"/>
</svg>
