<svg width="19" height="19" viewBox="0 0 19 19" fill="none" xmlns="http://www.w3.org/2000/svg">
<path fill-rule="evenodd" clip-rule="evenodd" d="M2 0H17C18.1046 0 19 0.895431 19 2V17C19 18.1046 18.1046 19 17 19H2C0.895431 19 0 18.1046 0 17V2C0 0.895431 0.895431 0 2 0ZM16.0006 13.485V5.985C16.0006 5.64125 15.8735 5.34708 15.6191 5.1025C15.3643 4.8575 15.0581 4.735 14.7006 4.735H4.30065C3.94315 4.735 3.63722 4.8575 3.38285 5.1025C3.12805 5.34708 3.00065 5.64125 3.00065 5.985V13.485C3.00065 13.8288 3.12805 14.1231 3.38285 14.3681C3.63722 14.6127 3.94315 14.735 4.30065 14.735H14.7006C15.0581 14.735 15.3643 14.6127 15.6191 14.3681C15.8735 14.1231 16.0006 13.8288 16.0006 13.485Z" fill="#fff"/>
<path d="M4.30065 7.235H14.7006V5.985H4.30065V7.235Z" fill="#fff"/>
<path d="M4.30065 9.735V13.485H14.7006V9.735H4.30065Z" fill="#fff"/>
</svg>
