<svg width="19" height="19" viewBox="0 0 19 19" fill="none" xmlns="http://www.w3.org/2000/svg">
<path fill-rule="evenodd" clip-rule="evenodd" d="M2 0C0.895431 0 0 0.895431 0 2V17C0 18.1046 0.895431 19 2 19H17C18.1046 19 19 18.1046 19 17V2C19 0.895431 18.1046 0 17 0H2ZM2.82318 14.5964C3.09711 14.8655 3.42658 15 3.81158 15H15.0116C15.3966 15 15.7263 14.8655 16.0007 14.5964C16.2746 14.3269 16.4116 14.0031 16.4116 13.625V5.375C16.4116 4.99687 16.2746 4.67329 16.0007 4.40425C15.7263 4.13475 15.3966 4 15.0116 4H3.81158C3.42658 4 3.09711 4.13475 2.82318 4.40425C2.54878 4.67329 2.41158 4.99687 2.41158 5.375V13.625C2.41158 14.0031 2.54878 14.3269 2.82318 14.5964ZM5.21158 10.1875H11.5116V8.8125H5.21158V10.1875ZM5.21158 8.125H11.5116V6.75H5.21158V8.125Z" fill="#fff"/>
</svg>
