<svg width="19" height="19" viewBox="0 0 19 19" fill="none" xmlns="http://www.w3.org/2000/svg">
<path fill-rule="evenodd" clip-rule="evenodd" d="M2 0C0.895431 0 0 0.895431 0 2V17C0 18.1046 0.895431 19 2 19H17C18.1046 19 19 18.1046 19 17V2C19 0.895431 18.1046 0 17 0H2ZM3.47775 15.5304C3.79571 15.8435 4.17812 16 4.625 16H14.375C14.8219 16 15.2043 15.8435 15.5223 15.5304C15.8408 15.2168 16 14.84 16 14.4V7.2C16 6.94667 15.9426 6.70667 15.8278 6.48C15.7124 6.25333 15.5531 6.06667 15.35 5.92L10.475 2.32C10.1906 2.10667 9.86562 2 9.5 2C9.13438 2 8.80938 2.10667 8.525 2.32L3.65 5.92C3.44688 6.06667 3.2879 6.25333 3.17306 6.48C3.05769 6.70667 3 6.94667 3 7.2V14.4C3 14.84 3.15925 15.2168 3.47775 15.5304Z" fill="#fff"/>
</svg>
