<svg width="19" height="19" viewBox="0 0 19 19" fill="none" xmlns="http://www.w3.org/2000/svg">
<path fill-rule="evenodd" clip-rule="evenodd" d="M19 9.5C19 14.7467 14.7467 19 9.5 19C4.25329 19 0 14.7467 0 9.5C0 4.25329 4.25329 0 9.5 0C14.7467 0 19 4.25329 19 9.5ZM7.58421 4.71053C6.82207 4.71053 6.09113 5.01329 5.55221 5.55221C5.01329 6.09113 4.71053 6.82207 4.71053 7.58421V11.4158C4.71053 12.1779 5.01329 12.9089 5.55221 13.4478C6.09113 13.9867 6.82207 14.2895 7.58421 14.2895H11.4158C12.1779 14.2895 12.9089 13.9867 13.4478 13.4478C13.9867 12.9089 14.2895 12.1779 14.2895 11.4158V7.58421C14.2895 6.82207 13.9867 6.09113 13.4478 5.55221C12.9089 5.01329 12.1779 4.71053 11.4158 4.71053H7.58421ZM7.26491 9.5C7.26491 8.90722 7.50039 8.33871 7.91955 7.91955C8.33871 7.50039 8.90722 7.26491 9.5 7.26491C10.0928 7.26491 10.6613 7.50039 11.0805 7.91955C11.4996 8.33871 11.7351 8.90722 11.7351 9.5C11.7351 10.0928 11.4996 10.6613 11.0805 11.0805C10.6613 11.4996 10.0928 11.7351 9.5 11.7351C8.90722 11.7351 8.33871 11.4996 7.91955 11.0805C7.50039 10.6613 7.26491 10.0928 7.26491 9.5ZM12.0789 6.55263C12.0789 6.7561 11.914 6.92105 11.7105 6.92105C11.5071 6.92105 11.3421 6.7561 11.3421 6.55263C11.3421 6.34916 11.5071 6.18421 11.7105 6.18421C11.914 6.18421 12.0789 6.34916 12.0789 6.55263ZM9.5 7.90351C9.07658 7.90351 8.67051 8.07171 8.37111 8.37111C8.07171 8.67051 7.90351 9.07658 7.90351 9.5C7.90351 9.9234 8.07171 10.3295 8.37111 10.6289C8.67051 10.9283 9.07658 11.0965 9.5 11.0965C9.9234 11.0965 10.3295 10.9283 10.6289 10.6289C10.9283 10.3295 11.0965 9.9234 11.0965 9.5C11.0965 9.07658 10.9283 8.67051 10.6289 8.37111C10.3295 8.07171 9.9234 7.90351 9.5 7.90351Z" fill="#50C1FF"/>
</svg>
