<svg width="726" height="533" viewBox="0 0 726 533" fill="none" xmlns="http://www.w3.org/2000/svg">
<path d="M119.335 382.067H65.3593C63.8978 382.066 62.4965 381.484 61.463 380.451C60.4294 379.417 59.848 378.016 59.8463 376.554V198.686C59.848 197.224 60.4294 195.823 61.463 194.789C62.4965 193.755 63.8978 193.174 65.3593 193.172H119.335C120.796 193.174 122.197 193.755 123.231 194.789C124.264 195.823 124.846 197.224 124.848 198.686V376.554C124.846 378.016 124.264 379.417 123.231 380.451C122.197 381.484 120.796 382.066 119.335 382.067V382.067Z" fill="#50C1FF"/>
<path d="M217.765 382.067H163.79C162.328 382.066 160.927 381.484 159.893 380.451C158.86 379.417 158.279 378.016 158.277 376.554V128.104C158.279 126.642 158.86 125.24 159.893 124.207C160.927 123.173 162.328 122.592 163.79 122.59H217.765C219.227 122.592 220.628 123.173 221.661 124.207C222.695 125.24 223.276 126.642 223.278 128.104V376.554C223.276 378.016 222.695 379.417 221.661 380.451C220.628 381.484 219.227 382.066 217.765 382.067V382.067Z" fill="#50C1FF"/>
<path d="M316.196 382.067H262.22C260.759 382.066 259.357 381.484 258.324 380.451C257.29 379.417 256.709 378.016 256.707 376.554V198.686C256.709 197.224 257.29 195.823 258.324 194.789C259.357 193.755 260.759 193.174 262.22 193.172H316.196C317.657 193.174 319.058 193.755 320.092 194.789C321.125 195.823 321.707 197.224 321.709 198.686V376.554C321.707 378.016 321.125 379.417 320.092 380.451C319.058 381.484 317.657 382.066 316.196 382.067V382.067Z" fill="#50C1FF"/>
<path d="M414.626 382.067H360.651C359.223 382.098 357.84 381.561 356.807 380.575C355.774 379.588 355.173 378.232 355.138 376.804V99.9923C355.173 98.564 355.774 97.208 356.807 96.2214C357.84 95.2348 359.223 94.698 360.651 94.7288H414.626C416.054 94.698 417.437 95.2348 418.47 96.2214C419.503 97.208 420.103 98.564 420.139 99.9923V376.804C420.103 378.232 419.503 379.588 418.47 380.575C417.437 381.561 416.054 382.098 414.626 382.067Z" fill="#50C1FF"/>
<path d="M513.057 382.067H459.081C457.62 382.066 456.219 381.484 455.185 380.451C454.151 379.417 453.57 378.016 453.568 376.554V50.0916C453.57 48.6298 454.151 47.2284 455.185 46.1948C456.219 45.1613 457.62 44.5799 459.081 44.5782H513.057C514.518 44.5799 515.919 45.1613 516.953 46.1948C517.986 47.2284 518.568 48.6298 518.57 50.0916V376.554C518.568 378.016 517.986 379.417 516.953 380.451C515.919 381.484 514.518 382.066 513.057 382.067V382.067Z" fill="#50C1FF"/>
<path d="M92.3469 170.883C98.5011 170.883 103.49 165.894 103.49 159.739C103.49 153.584 98.5011 148.594 92.3469 148.594C86.1928 148.594 81.2039 153.584 81.2039 159.739C81.2039 165.894 86.1928 170.883 92.3469 170.883Z" fill="#E0E0E0"/>
<path d="M190.777 98.4436C196.932 98.4436 201.921 93.454 201.921 87.299C201.921 81.1441 196.932 76.1545 190.777 76.1545C184.623 76.1545 179.634 81.1441 179.634 87.299C179.634 93.454 184.623 98.4436 190.777 98.4436Z" fill="#E0E0E0"/>
<path d="M289.208 170.883C295.362 170.883 300.351 165.894 300.351 159.739C300.351 153.584 295.362 148.594 289.208 148.594C283.054 148.594 278.065 153.584 278.065 159.739C278.065 165.894 283.054 170.883 289.208 170.883Z" fill="#E0E0E0"/>
<path d="M387.638 63.1525C393.793 63.1525 398.782 58.1629 398.782 52.008C398.782 45.853 393.793 40.8634 387.638 40.8634C381.484 40.8634 376.495 45.853 376.495 52.008C376.495 58.1629 381.484 63.1525 387.638 63.1525Z" fill="#E0E0E0"/>
<path d="M486.069 22.2891C492.223 22.2891 497.212 17.2995 497.212 11.1446C497.212 4.98959 492.223 0 486.069 0C479.915 0 474.926 4.98959 474.926 11.1446C474.926 17.2995 479.915 22.2891 486.069 22.2891Z" fill="#E0E0E0"/>
<path d="M576.306 384.137H0.869239C0.638703 384.137 0.417608 384.046 0.254594 383.883C0.0915796 383.719 0 383.498 0 383.268C0 383.037 0.0915796 382.816 0.254594 382.653C0.417608 382.49 0.638703 382.398 0.869239 382.398H576.306C576.536 382.398 576.757 382.49 576.92 382.653C577.083 382.816 577.175 383.037 577.175 383.268C577.175 383.498 577.083 383.719 576.92 383.883C576.757 384.046 576.536 384.137 576.306 384.137Z" fill="#CBCBCB"/>
<path d="M719.73 532.797H438.097C437.866 532.797 437.645 532.705 437.482 532.542C437.319 532.379 437.227 532.158 437.227 531.927C437.227 531.697 437.319 531.476 437.482 531.313C437.645 531.15 437.866 531.058 438.097 531.058H719.73C719.961 531.058 720.182 531.15 720.345 531.313C720.508 531.476 720.599 531.697 720.599 531.927C720.599 532.158 720.508 532.379 720.345 532.542C720.182 532.705 719.961 532.797 719.73 532.797Z" fill="#CBCBCB"/>
<path d="M538.872 370.007C539.587 369.296 540.137 368.438 540.484 367.492C540.831 366.545 540.967 365.535 540.881 364.53C540.795 363.526 540.491 362.553 539.988 361.679C539.486 360.806 538.798 360.053 537.973 359.474L541.39 344.095L532.553 339.739L528.031 361.524C527.151 362.975 526.833 364.698 527.137 366.367C527.442 368.036 528.348 369.536 529.685 370.581C531.021 371.627 532.694 372.146 534.387 372.04C536.081 371.934 537.676 371.211 538.872 370.007V370.007Z" fill="#FFB7B7"/>
<path d="M635.517 370.344C636.175 369.58 636.657 368.682 636.93 367.712C637.203 366.741 637.26 365.723 637.096 364.729C636.933 363.734 636.554 362.787 635.986 361.955C635.417 361.123 634.673 360.426 633.806 359.912L636.024 344.315L626.875 340.656L624.053 362.726C623.287 364.24 623.103 365.982 623.536 367.623C623.969 369.264 624.989 370.689 626.402 371.628C627.815 372.567 629.523 372.955 631.203 372.718C632.883 372.481 634.418 371.637 635.517 370.344L635.517 370.344Z" fill="#FFB7B7"/>
<path d="M566.624 523.42L557.612 523.419L553.325 488.653L566.626 488.654L566.624 523.42Z" fill="#FFB7B7"/>
<path d="M568.923 532.156L539.863 532.155V531.788C539.864 528.788 541.055 525.911 543.177 523.789C545.298 521.668 548.174 520.476 551.174 520.476H551.175L568.923 520.477L568.923 532.156Z" fill="#2F2E41"/>
<path d="M596.763 523.42L587.751 523.419L583.464 488.653L596.765 488.654L596.763 523.42Z" fill="#FFB7B7"/>
<path d="M599.062 532.156L570.003 532.155V531.788C570.003 528.788 571.194 525.911 573.316 523.789C575.437 521.668 578.313 520.476 581.313 520.476H581.314L599.062 520.477L599.062 532.156Z" fill="#2F2E41"/>
<path d="M614.909 230.927L624.626 227.42C624.626 227.42 628.751 228.296 628.751 239.483C628.751 250.67 639.705 355.005 639.705 355.005L620.535 360.053L609.699 261.065L614.909 230.927Z" fill="#2F2E41"/>
<path d="M549.971 230.927L540.253 227.42C540.253 227.42 536.129 228.296 536.129 239.483C536.129 250.67 525.174 355.005 525.174 355.005L544.345 360.053L555.18 261.065L549.971 230.927Z" fill="#2F2E41"/>
<path d="M550.096 349.922L547.439 428.295L553.32 514.991L568.473 515.341L570.678 434.469L583.175 394.033L581.914 513.215L599.072 513.01L609.699 431.014C609.699 431.014 623.733 363.155 615.951 349.922L580.11 338.002L550.096 349.922Z" fill="#2F2E41"/>
<path d="M550.388 340.478L549.523 359.331C549.523 359.331 561.615 365.35 582.87 361.683C604.125 358.017 618.254 360.434 618.254 360.434L616.622 336.4L550.388 340.478Z" fill="#E5E5E5"/>
<path d="M539.867 227.698L567.816 215.449L569.483 209.034L596.672 209.822L597.847 216.375L624.626 227.42L612.828 268.451L614.038 297.315L628.751 349.922C628.751 349.922 616.341 360.462 586.526 355.927L581.382 345.56L578.235 356.524C578.235 356.524 552.091 366.143 544.845 353.621L550.095 263.168L539.867 227.698Z" fill="#2F2E41"/>
<path d="M582.831 203.007C592.802 203.007 600.885 194.922 600.885 184.95C600.885 174.977 592.802 166.892 582.831 166.892C572.859 166.892 564.776 174.977 564.776 184.95C564.776 194.922 572.859 203.007 582.831 203.007Z" fill="#FFB7B7"/>
<path d="M604.283 177.953C603.96 176.483 603.339 175.096 602.459 173.876C602.108 170.502 600.982 167.255 599.171 164.388C598.461 163.045 597.453 161.881 596.225 160.987C594.818 160.177 593.213 159.777 591.59 159.832C591.296 159.827 590.767 159.916 590.29 159.938C589.985 159.843 589.678 159.759 589.369 159.68C589.189 159.279 588.832 158.112 588.733 158.191L587.388 159.26C586.819 159.161 586.248 159.084 585.674 159.023C585.465 158.427 585.256 157.831 585.047 157.235C584.708 157.768 584.411 158.327 584.159 158.906C583.588 158.878 583.016 158.868 582.444 158.876L581.301 157.778C581.234 158.084 581.079 158.364 580.855 158.584C580.631 158.803 580.348 158.952 580.04 159.013C579.514 159.067 578.991 159.138 578.468 159.222C578.426 159.222 578.383 159.222 578.341 159.221C575.526 159.151 572.497 159.024 570.143 160.57C569.042 161.326 568.145 162.344 567.533 163.532C567.245 163.728 566.956 163.923 566.676 164.13C565.732 164.775 564.914 165.586 564.262 166.525C563.788 167.334 563.428 168.206 563.193 169.114C562.295 171.848 561.879 174.717 561.963 177.593C562.059 180.489 563.152 183.263 565.056 185.447C566.264 186.745 567.798 187.703 569.007 188.998C571.497 191.667 571.963 195.388 574.092 198.211C576.344 201.197 580.455 203.162 584.064 203.725C586.235 204.052 588.448 203.947 590.577 203.416C592.707 202.885 594.711 201.938 596.473 200.63C597.319 200.041 598.037 199.287 598.586 198.415C599.839 196.247 599.308 193.523 599.773 191.063C600.645 186.452 605.044 182.583 604.283 177.953Z" fill="#2F2E41"/>
<path d="M91.7525 160.436L90.7147 159.042L190.778 84.5352L288.89 157.726L388.345 49.7315L388.523 49.6584L485.043 9.81677L485.707 11.4242L389.364 51.192L289.106 160.057L190.777 86.7034L91.7525 160.436Z" fill="#E0E0E0"/>
</svg>
