<svg width="12" height="19" viewBox="0 0 12 19" fill="none" xmlns="http://www.w3.org/2000/svg">
<path fill-rule="evenodd" clip-rule="evenodd" d="M6 19C5.8375 19 5.68125 18.9691 5.53125 18.9073C5.38125 18.8455 5.2375 18.7528 5.1 18.6293L0.6 14.4585C0.4125 14.2886 0.26575 14.0724 0.15975 13.8098C0.0532499 13.5472 0 13.2691 0 12.9756V1.85366C0 1.3439 0.147 0.907366 0.441 0.544049C0.7345 0.181349 1.0875 0 1.5 0H10.5C10.9125 0 11.2658 0.181349 11.5598 0.544049C11.8533 0.907366 12 1.3439 12 1.85366V12.9756C12 13.2691 11.947 13.5472 11.841 13.8098C11.7345 14.0724 11.5875 14.2886 11.4 14.4585L6.9 18.6293C6.7625 18.7528 6.61875 18.8455 6.46875 18.9073C6.31875 18.9691 6.1625 19 6 19ZM5.40573 10.9592C5.3389 10.9864 5.2673 11 5.19093 11C5.11456 11 5.04296 10.9864 4.97613 10.9592C4.90931 10.9316 4.84725 10.8849 4.78998 10.8191L3.15752 8.94408C3.05251 8.82346 3 8.66996 3 8.48355C3 8.29715 3.05251 8.14364 3.15752 8.02303C3.27208 7.89145 3.40573 7.82566 3.55847 7.82566C3.71122 7.82566 3.8401 7.88597 3.94511 8.00658L5.19093 9.4375L8.02625 6.18092C8.13126 6.06031 8.26492 6 8.42721 6C8.5895 6 8.72315 6.06031 8.82816 6.18092C8.94272 6.3125 9 6.46601 9 6.64145C9 6.81689 8.94749 6.96491 8.84248 7.08553L5.59189 10.8191C5.53461 10.8849 5.47255 10.9316 5.40573 10.9592Z" fill="#50c1ff"/>
</svg>
