<svg width="12" height="19" viewBox="0 0 12 19" fill="none" xmlns="http://www.w3.org/2000/svg">
<path fill-rule="evenodd" clip-rule="evenodd" d="M5.53125 18.9073C5.68125 18.9691 5.8375 19 6 19C6.1625 19 6.31875 18.9691 6.46875 18.9073C6.61875 18.8455 6.7625 18.7528 6.9 18.6293L11.4 14.4585C11.5875 14.2886 11.7345 14.0724 11.841 13.8098C11.947 13.5472 12 13.2691 12 12.9756V1.85366C12 1.3439 11.8533 0.907366 11.5598 0.544049C11.2658 0.181349 10.9125 0 10.5 0H1.5C1.0875 0 0.7345 0.181349 0.441 0.544049C0.147 0.907366 0 1.3439 0 1.85366V12.9756C0 13.2691 0.0532499 13.5472 0.15975 13.8098C0.26575 14.0724 0.4125 14.2886 0.6 14.4585L5.1 18.6293C5.2375 18.7528 5.38125 18.8455 5.53125 18.9073ZM6 12L7.25333 9.25333L10 8L7.25333 6.74667L6 4L4.74667 6.74667L2 8L4.74667 9.25333L6 12Z" fill="#50c1ff"/>
</svg>
