<svg width="19" height="19" viewBox="0 0 19 19" fill="none" xmlns="http://www.w3.org/2000/svg">
<path fill-rule="evenodd" clip-rule="evenodd" d="M2 0C0.895431 0 0 0.895431 0 2V17C0 18.1046 0.895431 19 2 19H17C18.1046 19 19 18.1046 19 17V2C19 0.895431 18.1046 0 17 0H2ZM4.67403 14.5653V14.1715H14.0074V14.5465C14.0074 14.859 14.1209 15.1245 14.348 15.343C14.5746 15.562 14.85 15.6715 15.174 15.6715C15.5111 15.6715 15.7898 15.5653 16.0101 15.3528C16.2305 15.1403 16.3407 14.8778 16.3407 14.5653V8.9215L14.7074 4.4215C14.6296 4.1965 14.4904 4.01525 14.2897 3.87775C14.0885 3.74025 13.8648 3.6715 13.6185 3.6715H5.06292C4.81662 3.6715 4.59314 3.74025 4.39248 3.87775C4.19129 4.01525 4.05181 4.1965 3.97403 4.4215L2.3407 8.9215V14.5465C2.3407 14.859 2.45425 15.1245 2.68137 15.343C2.90796 15.562 3.18329 15.6715 3.50736 15.6715C3.8444 15.6715 4.12311 15.5653 4.34348 15.3528C4.56385 15.1403 4.67403 14.8778 4.67403 14.5653ZM4.51848 7.4215H14.1629L13.3463 5.1715H5.33514L4.51848 7.4215Z" fill="#fff"/>
<path d="M5.8407 11.9215C6.16477 11.9215 6.44011 11.812 6.6667 11.593C6.89381 11.3745 7.00737 11.109 7.00737 10.7965C7.00737 10.484 6.89381 10.2185 6.6667 10C6.44011 9.781 6.16477 9.6715 5.8407 9.6715C5.51662 9.6715 5.24129 9.781 5.0147 10C4.78759 10.2185 4.67403 10.484 4.67403 10.7965C4.67403 11.109 4.78759 11.3745 5.0147 11.593C5.24129 11.812 5.51662 11.9215 5.8407 11.9215Z" fill="#fff"/>
<path d="M12.8407 11.9215C13.1648 11.9215 13.4401 11.812 13.6667 11.593C13.8938 11.3745 14.0074 11.109 14.0074 10.7965C14.0074 10.484 13.8938 10.2185 13.6667 10C13.4401 9.781 13.1648 9.6715 12.8407 9.6715C12.5166 9.6715 12.2413 9.781 12.0147 10C11.7876 10.2185 11.674 10.484 11.674 10.7965C11.674 11.109 11.7876 11.3745 12.0147 11.593C12.2413 11.812 12.5166 11.9215 12.8407 11.9215Z" fill="#fff"/>
</svg>
