<svg width="20" height="19" viewBox="0 0 20 19" fill="none" xmlns="http://www.w3.org/2000/svg">
<path fill-rule="evenodd" clip-rule="evenodd" d="M16.403 2.63303C15.5714 1.79591 14.5819 1.13214 13.4919 0.680178C12.4019 0.22821 11.233 -0.00297023 10.053 2.88091e-05C5.10501 2.88091e-05 1.07701 4.02703 1.07501 8.97703C1.07501 10.559 1.48801 12.103 2.27301 13.465L1.00001 18.116C0.718797 18.116 5.75901 16.867 5.75901 16.867C7.0754 17.5836 8.5502 17.9594 10.049 17.96H10.053C15 17.96 19.028 13.933 19.03 8.98303C19.0334 7.80351 18.803 6.63502 18.3521 5.54509C17.9012 4.45516 17.2387 3.4654 16.403 2.63303ZM10.053 16.445H10.05C8.71352 16.4452 7.40164 16.0856 6.25201 15.404L5.98001 15.242L3.15601 15.983L3.90901 13.23L3.73201 12.948C2.98479 11.7585 2.58924 10.3818 2.59101 8.97703C2.59301 4.86303 5.94001 1.51603 10.056 1.51603C11.0363 1.51385 12.0072 1.70611 12.9127 2.08168C13.8181 2.45725 14.6401 3.00867 15.331 3.70403C16.0256 4.39607 16.5762 5.21892 16.9509 6.12503C17.3256 7.03113 17.517 8.00251 17.514 8.98303C17.512 13.097 14.165 16.445 10.053 16.445ZM14.146 10.856C13.921 10.743 12.819 10.201 12.613 10.126C12.408 10.051 12.259 10.014 12.109 10.238C11.959 10.462 11.529 10.967 11.398 11.117C11.267 11.267 11.136 11.285 10.912 11.173C10.688 11.061 9.96501 10.824 9.10801 10.06C8.44101 9.46503 7.99101 8.73103 7.86001 8.50603C7.72901 8.28103 7.84601 8.16003 7.95901 8.04803C8.06001 7.94803 8.18301 7.78603 8.29501 7.65503C8.40701 7.52403 8.44401 7.43103 8.51901 7.28103C8.59401 7.13103 8.55701 7.00003 8.50001 6.88803C8.44401 6.77503 7.99501 5.67103 7.80801 5.22203C7.62701 4.78703 7.44201 4.84503 7.30401 4.83903C7.16108 4.83318 7.01805 4.83052 6.87501 4.83103C6.76126 4.83393 6.64934 4.86029 6.54627 4.90848C6.44319 4.95666 6.35118 5.02562 6.27601 5.11103C6.07001 5.33603 5.49101 5.87803 5.49101 6.98203C5.49101 8.08603 6.29501 9.15303 6.40701 9.30303C6.51901 9.45303 7.98901 11.718 10.239 12.69C10.775 12.921 11.193 13.059 11.518 13.163C12.055 13.334 12.544 13.309 12.931 13.252C13.362 13.188 14.258 12.71 14.445 12.186C14.632 11.662 14.632 11.213 14.576 11.119C14.52 11.025 14.369 10.968 14.146 10.856Z" fill="#fff"/>
</svg>
